<?xml version="1.0" encoding="UTF-8" standalone="no"?>
<!-- Created with Inkscape (http://www.inkscape.org/) -->

<svg
   xmlns:dc="http://purl.org/dc/elements/1.1/"
   xmlns:cc="http://creativecommons.org/ns#"
   xmlns:rdf="http://www.w3.org/1999/02/22-rdf-syntax-ns#"
   xmlns:svg="http://www.w3.org/2000/svg"
   xmlns="http://www.w3.org/2000/svg"
   xmlns:xlink="http://www.w3.org/1999/xlink"
   xmlns:sodipodi="http://sodipodi.sourceforge.net/DTD/sodipodi-0.dtd"
   xmlns:inkscape="http://www.inkscape.org/namespaces/inkscape"
   width="156.10451mm"
   height="175.20847mm"
   viewBox="0 0 109.27316 122.64592"
   version="1.1"
   id="svg8"
   inkscape:version="0.92.4 (5da689c313, 2019-01-14)"
   sodipodi:docname="hero.svg"
   inkscape:export-filename="/home/alija/Git/github/sabicalija/vuepress-plugins/packages/docs/docs/.vuepress/public/hero.png"
   inkscape:export-xdpi="100"
   inkscape:export-ydpi="100">
  <defs
     id="defs2">
    <linearGradient
       inkscape:collect="always"
       id="linearGradient5481">
      <stop
         style="stop-color:#ffffff;stop-opacity:1"
         offset="0"
         id="stop5477" />
      <stop
         style="stop-color:#f4f6f7;stop-opacity:1"
         offset="1"
         id="stop5479" />
    </linearGradient>
    <linearGradient
       inkscape:collect="always"
       id="linearGradient5467">
      <stop
         style="stop-color:#60698a;stop-opacity:1"
         offset="0"
         id="stop5463" />
      <stop
         style="stop-color:#2f344a;stop-opacity:1"
         offset="1"
         id="stop5465" />
    </linearGradient>
    <linearGradient
       id="linearGradient5449"
       inkscape:collect="always">
      <stop
         id="stop5445"
         offset="0"
         style="stop-color:#9aeba4;stop-opacity:1" />
      <stop
         id="stop5447"
         offset="1"
         style="stop-color:#389f6d;stop-opacity:1" />
    </linearGradient>
    <linearGradient
       inkscape:collect="always"
       id="linearGradient5407">
      <stop
         style="stop-color:#ffffff;stop-opacity:1"
         offset="0"
         id="stop5403" />
      <stop
         style="stop-color:#bcc0cf;stop-opacity:1"
         offset="1"
         id="stop5405" />
    </linearGradient>
    <linearGradient
       inkscape:collect="always"
       xlink:href="#linearGradient5407"
       id="linearGradient5409"
       x1="-7.0294418"
       y1="276.85938"
       x2="312.29102"
       y2="430.09375"
       gradientUnits="userSpaceOnUse" />
    <linearGradient
       inkscape:collect="always"
       xlink:href="#linearGradient5449"
       id="linearGradient5417"
       x1="18.654919"
       y1="75.074829"
       x2="409.79465"
       y2="380.1409"
       gradientUnits="userSpaceOnUse" />
    <linearGradient
       inkscape:collect="always"
       xlink:href="#linearGradient5467"
       id="linearGradient5469"
       x1="366.16458"
       y1="134.28864"
       x2="419.83734"
       y2="212.11322"
       gradientUnits="userSpaceOnUse" />
    <linearGradient
       inkscape:collect="always"
       xlink:href="#linearGradient5481"
       id="linearGradient5483"
       x1="2.0619273"
       y1="70.744087"
       x2="387.14072"
       y2="393.99289"
       gradientUnits="userSpaceOnUse" />
    <linearGradient
       inkscape:collect="always"
       xlink:href="#linearGradient5467"
       id="linearGradient893"
       gradientUnits="userSpaceOnUse"
       x1="366.16458"
       y1="134.28864"
       x2="419.83734"
       y2="212.11322"
       gradientTransform="rotate(-19.473127,46.438953,624.25481)" />
    <linearGradient
       inkscape:collect="always"
       xlink:href="#linearGradient5449"
       id="linearGradient895"
       gradientUnits="userSpaceOnUse"
       x1="18.654919"
       y1="75.074829"
       x2="409.79465"
       y2="380.1409"
       gradientTransform="matrix(0.18520834,0,0,0.18520834,183.50908,44.597003)" />
    <linearGradient
       inkscape:collect="always"
       xlink:href="#linearGradient5407"
       id="linearGradient897"
       gradientUnits="userSpaceOnUse"
       x1="-7.0294418"
       y1="276.85938"
       x2="312.29102"
       y2="430.09375"
       gradientTransform="matrix(0.18520834,0,0,0.18520834,183.50908,44.597003)" />
    <filter
       inkscape:collect="always"
       style="color-interpolation-filters:sRGB"
       id="filter969"
       x="-0.014445865"
       width="1.0288917"
       y="-0.010262441"
       height="1.0205249">
      <feGaussianBlur
         inkscape:collect="always"
         stdDeviation="0.40675962"
         id="feGaussianBlur971" />
    </filter>
    <filter
       inkscape:collect="always"
       style="color-interpolation-filters:sRGB"
       id="filter1047"
       x="-0.014445865"
       width="1.0288917"
       y="-0.010262441"
       height="1.0205249">
      <feGaussianBlur
         inkscape:collect="always"
         stdDeviation="0.40675962"
         id="feGaussianBlur1049" />
    </filter>
    <filter
       inkscape:collect="always"
       style="color-interpolation-filters:sRGB"
       id="filter1065"
       x="-0.01444589"
       width="1.0288918"
       y="-0.010262428"
       height="1.0205249">
      <feGaussianBlur
         inkscape:collect="always"
         stdDeviation="0.40675908"
         id="feGaussianBlur1067" />
    </filter>
  </defs>
  <sodipodi:namedview
     id="base"
     pagecolor="#ffffff"
     bordercolor="#666666"
     borderopacity="1.0"
     inkscape:pageopacity="0.0"
     inkscape:pageshadow="2"
     inkscape:zoom="0.35"
     inkscape:cx="983.21399"
     inkscape:cy="683.5252"
     inkscape:document-units="mm"
     inkscape:current-layer="layer1"
     showgrid="false"
     fit-margin-top="0"
     fit-margin-left="0"
     fit-margin-right="0"
     fit-margin-bottom="0"
     inkscape:window-width="2560"
     inkscape:window-height="1376"
     inkscape:window-x="0"
     inkscape:window-y="27"
     inkscape:window-maximized="1"
     inkscape:pagecheckerboard="true"
     scale-x="0.7"
     showguides="true"
     inkscape:guide-bbox="true">
    <sodipodi:guide
       position="463.34555,65.141135"
       orientation="0.86353976,0.50428076"
       id="guide5260"
       inkscape:locked="false" />
    <sodipodi:guide
       position="490.72248,65.141135"
       orientation="0.86367062,-0.50405661"
       id="guide5262"
       inkscape:locked="false" />
    <sodipodi:guide
       position="474.54368,65.140957"
       orientation="0,1"
       id="guide5271"
       inkscape:locked="false" />
  </sodipodi:namedview>
  <metadata
     id="metadata5">
    <rdf:RDF>
      <cc:Work
         rdf:about="">
        <dc:format>image/svg+xml</dc:format>
        <dc:type
           rdf:resource="http://purl.org/dc/dcmitype/StillImage" />
        <dc:title></dc:title>
      </cc:Work>
    </rdf:RDF>
  </metadata>
  <g
     inkscape:label="Layer 1"
     inkscape:groupmode="layer"
     id="layer1"
     transform="translate(-172.94806,-38.368703)">
    <g
       id="g1109"
       inkscape:export-xdpi="100"
       inkscape:export-ydpi="100">
      <path
         transform="rotate(-19.473127,46.438953,624.25481)"
         id="path1055"
         d="M 410.32173,166.93675 V 146.7288 c 0,-3.18872 2.585,-5.7737 5.77373,-5.7737 3.18869,0 5.77369,2.58498 5.77369,5.7737 v 20.20795 z m 20.20797,2.88688 h -63.51073 c -1.59445,0 -2.88684,1.29241 -2.88684,2.88687 v 5.77369 c 0,1.59441 1.29239,2.88682 2.88684,2.88682 h 2.88685 v 5.77375 c 0,13.9662 9.91798,25.61556 23.09483,28.29038 v 17.89922 h 11.54738 v -17.89922 c 13.17685,-2.67482 23.09483,-14.32418 23.09483,-28.29038 v -5.77375 h 2.88684 c 1.59446,0 2.88684,-1.29241 2.88684,-2.88682 v -5.77369 c 0,-1.59446 -1.29238,-2.88687 -2.88684,-2.88687 z m -43.30276,-2.88688 V 146.7288 c 0,-3.18872 -2.585,-5.7737 -5.77373,-5.7737 -3.18869,0 -5.77368,2.58498 -5.77368,5.7737 v 20.20795 z"
         inkscape:connector-curvature="0"
         style="fill:#1d212f;fill-opacity:1;stroke-width:0.18042821;filter:url(#filter1065)" />
      <path
         style="fill:#1d212f;fill-opacity:1;stroke-width:0.18042821"
         inkscape:connector-curvature="0"
         d="m 236.68277,71.790611 -6.73661,-19.052014 c -1.06301,-3.006319 0.51238,-6.30518 3.51871,-7.36819 3.00629,-1.062997 6.30516,0.512369 7.36817,3.518688 l 6.73662,19.052014 z m 20.01442,-4.014879 -59.87779,21.172235 c -1.50324,0.531534 -2.29086,2.180852 -1.75932,3.684106 l 1.92474,5.443423 c 0.53152,1.503206 2.18083,2.290854 3.68407,1.759317 l 2.72172,-0.962374 1.92476,5.443481 c 4.65584,13.1673 17.88998,20.84399 31.20478,18.97311 l 5.96696,16.87535 10.88685,-3.84949 -5.96697,-16.87535 c 11.53142,-6.91451 16.99858,-21.203807 12.34275,-34.371112 l -1.92477,-5.44348 2.72171,-0.96237 c 1.50325,-0.531537 2.29086,-2.180852 1.75934,-3.684059 l -1.92474,-5.443423 c -0.53154,-1.503253 -2.18084,-2.290901 -3.68409,-1.759364 z m -41.78814,11.713867 -6.73661,-19.052014 c -1.06301,-3.006319 -4.36189,-4.581685 -7.36821,-3.518675 -3.00629,1.062997 -4.58168,4.361855 -3.51867,7.368174 l 6.73662,19.052014 z"
         id="path1051" />
      <path
         id="path879"
         d="m 235.94193,71.420202 -6.73661,-19.052014 c -1.06301,-3.006318 0.51238,-6.30518 3.51871,-7.36819 3.00629,-1.062997 6.30516,0.51237 7.36817,3.518688 l 6.73662,19.052014 z m 20.01442,-4.014879 -59.87779,21.172236 c -1.50324,0.531533 -2.29086,2.180852 -1.75932,3.684105 l 1.92474,5.443423 c 0.53152,1.503207 2.18083,2.290851 3.68407,1.759318 l 2.72172,-0.962374 1.92476,5.443479 c 4.65584,13.16731 17.88998,20.84399 31.20478,18.97311 l 5.96697,16.87535 10.88684,-3.84949 -5.96697,-16.87535 c 11.53142,-6.91451 16.99859,-21.203806 12.34275,-34.371111 l -1.92477,-5.443479 2.72171,-0.962371 c 1.50325,-0.531537 2.29086,-2.180852 1.75934,-3.684058 l -1.92474,-5.443424 c -0.53154,-1.503253 -2.18084,-2.290901 -3.68409,-1.759364 z M 214.16821,79.11919 207.4316,60.067176 c -1.06301,-3.006318 -4.36188,-4.581685 -7.36821,-3.518675 -3.00629,1.062997 -4.58167,4.361855 -3.51867,7.368174 l 6.73662,19.052014 z"
         inkscape:connector-curvature="0"
         style="fill:url(#linearGradient893);fill-opacity:1;stroke-width:0.18042821" />
      <path
         transform="rotate(-19.473127,46.438953,624.25481)"
         inkscape:connector-curvature="0"
         id="path989"
         d="m 411.33805,144.42077 c -0.61902,-0.22665 -1.28765,-0.35049 -1.98518,-0.35049 -3.18872,0 -5.77361,2.585 -5.77361,5.77373 l -10e-5,20.20814 11.54769,10e-6 -2.5e-4,-20.20826 c 0,-2.49119 -1.5778,-4.61366 -3.78855,-5.42313 z m -34.64192,0 c -0.61902,-0.22665 -1.28777,-0.35015 -1.9853,-0.35015 -3.18869,0 -5.77396,2.58488 -5.77396,5.77361 l 3.7e-4,20.20792 11.54735,-1.1e-4 -3e-5,-20.2078 c 0,-2.4912 -1.57766,-4.614 -3.78843,-5.42347 z m 47.94949,28.64799 c -0.27119,-0.0843 -0.5595,-0.12974 -0.85846,-0.12974 l -63.51051,-1.8e-4 c -1.59446,0 -2.88704,1.29251 -2.88704,2.88698 l 6e-5,5.77367 c 0,1.59442 1.29251,2.88704 2.88697,2.88704 l 2.8869,-2e-4 -2.9e-4,5.77355 c 0,13.96621 9.91818,25.61589 23.09503,28.29072 l -1.2e-4,17.89913 11.54735,-1.2e-4 1.2e-4,-17.89912 c 13.17685,-2.67483 23.09492,-14.32438 23.09492,-28.29059 l -5e-5,-5.77367 2.88677,1.4e-4 c 1.59446,0 2.88704,-1.29256 2.88704,-2.88698 l -6e-5,-5.77367 c 0,-1.29551 -0.85345,-2.39147 -2.02863,-2.75696 z m -32.61483,7.62151 -6.73838,11.67396 -6.7442,-11.67403 4.93803,-1e-4 1.80595,3.33356 2.10719,-3.33346 z"
         style="fill:#246f4e;fill-opacity:1;stroke-width:0.18042821;filter:url(#filter1047)" />
      <path
         style="fill:#246f4e;fill-opacity:1;stroke-width:0.18042821"
         d="m 230.13492,50.223786 c -0.65916,-0.0073 -1.33083,0.09882 -1.98846,0.331348 -3.00632,1.063006 -4.5816,4.36185 -3.51859,7.368178 l 6.73659,19.052227 10.88714,-3.849583 -6.73696,-19.052223 c -0.83047,-2.348689 -3.02558,-3.823766 -5.37972,-3.849947 z m -32.66033,11.548393 c -0.65916,-0.0073 -1.33083,0.09918 -1.98846,0.331709 -3.00629,1.062996 -4.58197,4.361854 -3.51896,7.368182 l 6.73696,19.051862 10.88678,-3.849583 -6.7366,-19.051862 c -0.83048,-2.348698 -3.02556,-3.824134 -5.37972,-3.850308 z m 54.75691,11.024599 c -0.28378,0.01093 -0.57074,0.0642 -0.8526,0.163862 l -59.87764,21.171992 c -1.50325,0.531537 -2.29102,2.181013 -1.75948,3.684276 l 1.9248,5.443382 c 0.53152,1.50322 2.18101,2.29102 3.68426,1.75948 l 2.7217,-0.96258 1.92442,5.44339 c 4.65584,13.16732 17.89028,20.84424 31.20508,18.97337 l 5.96682,16.8753 10.88678,-3.84959 -5.96682,-16.87529 c 11.53141,-6.91453 16.9986,-21.20403 12.34276,-34.371346 l -1.92479,-5.443388 2.72169,-0.962215 c 1.50325,-0.531537 2.291,-2.18106 1.75948,-3.684276 l -1.9248,-5.443384 c -0.43187,-1.221405 -1.60186,-1.970163 -2.83166,-1.922983 z m -28.20845,18.058177 -2.46124,13.252525 -10.25013,-8.757975 4.65553,-1.646259 2.81394,2.540834 0.87539,-3.845242 z"
         id="path985"
         inkscape:connector-curvature="0" />
      <path
         inkscape:connector-curvature="0"
         id="path881"
         d="m 229.39409,49.853375 c -0.65917,-0.0073 -1.33084,0.09882 -1.98846,0.331349 -3.00632,1.063007 -4.58161,4.361853 -3.5186,7.368181 l 6.73659,19.052224 10.88714,-3.849585 -6.73695,-19.052223 c -0.83048,-2.348694 -3.02558,-3.823766 -5.37972,-3.849946 z m -32.66034,11.548391 c -0.65916,-0.0073 -1.33082,0.09918 -1.98846,0.331711 -3.00629,1.062997 -4.58196,4.361853 -3.51895,7.36818 l 6.73695,19.051862 10.88678,-3.849585 -6.7366,-19.05186 c -0.83047,-2.348694 -3.02556,-3.824132 -5.37972,-3.850308 z m 54.75692,11.0246 c -0.2838,0.01089 -0.57075,0.0642 -0.85261,0.163865 L 190.76042,93.76222 c -1.50325,0.531537 -2.29102,2.18101 -1.75948,3.684272 l 1.92479,5.443388 c 0.53153,1.50322 2.18102,2.29102 3.68427,1.75948 l 2.7217,-0.96258 1.92443,5.44339 c 4.65584,13.16732 17.89027,20.84424 31.20507,18.97337 l 5.96682,16.8753 10.88678,-3.84959 -5.96682,-16.8753 c 11.53141,-6.91452 16.9986,-21.20402 12.34276,-34.371337 l -1.92479,-5.44339 2.72169,-0.962215 c 1.50326,-0.531537 2.29101,-2.181056 1.75948,-3.684271 l -1.92479,-5.443388 c -0.43187,-1.221401 -1.60187,-1.970165 -2.83166,-1.922983 z m -28.20846,18.058174 -2.46125,13.25253 -10.25012,-8.757972 4.65553,-1.646258 2.81394,2.540829 0.8754,-3.845244 z"
         style="fill:url(#linearGradient895);fill-opacity:1;stroke-width:0.18042821" />
      <path
         inkscape:connector-curvature="0"
         style="fill:url(#linearGradient897);fill-opacity:1;stroke-width:0.18042821"
         d="m 224.07586,55.038123 c -0.65916,-0.0073 -1.33084,0.09882 -1.98846,0.331349 -3.00633,1.063011 -4.5816,4.361872 -3.5186,7.368182 l 6.73659,19.052223 10.88714,-3.849585 -6.73695,-19.051861 c -0.83047,-2.348679 -3.02558,-3.824127 -5.37972,-3.850308 z m -32.66034,11.548392 c -0.65916,-0.0073 -1.33082,0.09918 -1.98845,0.33171 -3.0063,1.062998 -4.58197,4.361871 -3.51896,7.368181 l 6.73659,19.051861 10.88714,-3.849583 -6.73659,-19.051862 c -0.83048,-2.348678 -3.02556,-3.824135 -5.37973,-3.850307 z m 54.75692,11.024599 c -0.2838,0.01089 -0.57075,0.0642 -0.85261,0.163865 l -59.87764,21.171989 c -1.50325,0.531539 -2.29101,2.181042 -1.75948,3.684272 l 1.92479,5.44339 c 0.53153,1.50323 2.18066,2.29102 3.68391,1.75948 l 2.72206,-0.96258 1.92443,5.44339 c 4.65585,13.16732 17.89027,20.84422 31.20507,18.97337 l 5.96682,16.8753 10.88678,-3.84959 -5.96682,-16.8753 c 11.53141,-6.91454 16.99861,-21.20365 12.34276,-34.370978 l -1.92479,-5.443751 2.72169,-0.962215 c 1.50325,-0.531533 2.29102,-2.180674 1.75948,-3.683908 l -1.92479,-5.443751 c -0.43187,-1.221379 -1.60187,-1.970156 -2.83166,-1.922983 z m -19.90266,11.816797 -3.68174,19.306889 -15.00477,-12.699437 2.98757,-1.056265 4.65553,-1.646258 2.81394,2.540829 0.8754,-3.845244 4.36614,-1.543885 h 3.7e-4 z"
         id="path883" />
      <path
         transform="rotate(-19.473127,46.438953,624.25481)"
         style="fill:#bfbfbf;fill-opacity:1;stroke-width:0.18042821;filter:url(#filter969)"
         d="m 404.7191,147.18662 c -0.61901,-0.22665 -1.28765,-0.35049 -1.98517,-0.35049 -3.18874,0 -5.77362,2.58502 -5.77362,5.77373 l -9e-5,20.20814 11.54768,10e-6 -3.6e-4,-20.20792 c -1e-5,-2.49118 -1.57769,-4.614 -3.78844,-5.42347 z m -34.64192,0 c -0.61902,-0.22666 -1.28776,-0.35015 -1.98529,-0.35015 -3.1887,0 -5.77396,2.5849 -5.77396,5.77361 l 2e-5,20.2078 11.54769,1e-5 -3e-5,-20.2078 c 0,-2.49118 -1.57766,-4.614 -3.78843,-5.42347 z m 47.9495,28.64799 c -0.2712,-0.0843 -0.55951,-0.12974 -0.85847,-0.12974 l -63.51051,-1.8e-4 c -1.59446,0 -2.88704,1.29254 -2.88704,2.88698 l 6e-5,5.77367 c 0,1.59444 1.29217,2.88692 2.88663,2.88692 l 2.88724,-8e-5 -2.8e-4,5.77355 c 0,13.96622 9.91818,25.61587 23.09503,28.29072 l -1.3e-4,17.89913 11.54735,-1.2e-4 1.2e-4,-17.89912 c 13.17685,-2.67485 23.0948,-14.32403 23.0948,-28.29025 l 7e-5,-5.77401 2.88677,1.4e-4 c 1.59445,0 2.88692,-1.29219 2.88692,-2.88663 l 7e-5,-5.77402 c 0,-1.29548 -0.85346,-2.39146 -2.02863,-2.75696 z m -23.75118,4.13575 -9.90737,16.97513 -9.91293,-16.97506 h 8.10683 l 1.80595,3.33356 2.10719,-3.33346 z m 0.37963,21.04166 c 0.60435,0.19867 1.04366,0.7944 1.04366,1.49514 l -1.2e-4,10.24045 c 0.003,0.86243 -0.66193,1.56527 -1.48159,1.56527 l -17.60487,-6e-5 c -0.81967,0 -1.48498,-0.70285 -1.48498,-1.56869 l -2.8e-4,-10.23713 c 0,-0.86245 0.66547,-1.56555 1.48514,-1.56555 l 17.60178,1.1e-4 c 0.15368,0 0.30179,0.0246 0.44126,0.0705 z m -0.82924,0.91501 c -0.12695,-0.0395 -0.26184,-0.0607 -0.40173,-0.0607 l -16.02225,1.4e-4 c -0.74609,0 -1.3517,0.60558 -1.3517,1.34876 l 2e-4,8.82131 c 0,0.7461 0.60542,1.35153 1.35151,1.35153 l 16.02487,3e-5 c 0.74609,0 1.35096,-0.60541 1.34896,-1.34859 l 8e-5,-8.82428 c 0,-0.60383 -0.3998,-1.11703 -0.94994,-1.28819 z m -3.01493,2.63994 2.6e-4,3.06034 1.79943,1.2e-4 -2.69768,3.15114 -2.70073,-3.15115 1.79955,-2.3e-4 8e-5,-3.06022 z m -4.8624,-2e-5 6e-5,6.1209 -1.79372,-1e-5 -9e-5,-3.51111 -1.79937,2.2502 -1.79961,-2.25009 9e-5,3.51111 -1.80514,-2.2e-4 -6e-5,-6.12091 1.79943,1.2e-4 1.79961,2.2501 1.79937,-2.25021 z"
         id="path945"
         inkscape:connector-curvature="0"
         sodipodi:nodetypes="csccccccsscccccccccccccccccccccccccccccccccccccccccccccccccccccccccccccccccccccccc" />
      <path
         style="fill:#d4d4d4;fill-opacity:1;stroke-width:0.18042821"
         d="m 224.81669,55.408535 c -0.65916,-0.0073 -1.33083,0.09882 -1.98845,0.331344 -3.00634,1.063014 -4.5816,4.361873 -3.5186,7.368182 l 5.99576,18.681814 0.74083,0.370409 10.88714,-3.849579 -6.73695,-19.051866 c -0.83048,-2.348676 -3.02559,-3.824124 -5.37973,-3.850304 z m -32.66033,11.548393 c -0.65917,-0.0073 -1.33082,0.09917 -1.98845,0.331705 -3.0063,1.063 -4.58197,4.361873 -3.51896,7.368182 l 5.99574,18.681457 0.74084,0.370409 10.88714,-3.849583 -6.73659,-19.051862 c -0.83047,-2.34868 -3.02556,-3.824134 -5.37972,-3.850308 z m 54.75692,11.024596 c -0.28379,0.01093 -0.57075,0.0642 -0.85261,0.163865 l -59.87764,21.171992 c -1.50326,0.531537 -2.29101,2.181039 -1.75948,3.684279 l 1.49484,5.70797 c 0.23387,0.8087 2.3791,2.09258 3.48547,1.72641 l 3.3504,-1.19422 1.92444,5.44339 c 4.65584,13.16732 17.89026,20.84421 31.20507,18.97336 l 5.22602,16.50502 0.7408,0.37029 10.88678,-3.84959 -5.96683,-16.8753 c 11.53141,-6.91454 16.99861,-21.20366 12.34276,-34.370979 l -1.92478,-5.443748 2.72169,-0.962216 c 1.50324,-0.531533 2.29101,-2.180671 1.75948,-3.683906 l -1.92479,-5.443757 c -0.43187,-1.221376 -1.60187,-1.97015 -2.83166,-1.922983 z m -20.6435,11.44639 -3.68174,19.306876 -15.00477,-12.699421 z m 7.37246,19.711476 c 1.99865,1.2375 3.66702,8.65843 4.52571,11.08701 0.29033,0.8121 -0.10226,1.6964 -0.87503,1.96964 l -16.59786,5.86879 c -0.77278,0.27325 -2.7101,-0.21438 -2.99874,-1.03069 l -3.74037,-10.02563 c -0.28751,-0.81312 0.62,-2.37603 1.39279,-2.64928 5.86341,-1.76396 12.16728,-7.09055 17.12802,-5.83142 z m -0.84714,1.50971 c 44.69534,26.34299 22.34766,13.17149 0,0 z"
         id="path983"
         inkscape:connector-curvature="0"
         sodipodi:nodetypes="cscccccccsscccccccccccccccccccccccccccccccccccccccc" />
      <path
         inkscape:connector-curvature="0"
         id="path885"
         d="m 224.07585,55.038126 c -0.65915,-0.0073 -1.33083,0.09882 -1.98845,0.331345 -3.00634,1.063013 -4.5816,4.361872 -3.5186,7.368181 l 6.7366,19.052223 10.88713,-3.849579 -6.73695,-19.051866 c -0.83048,-2.348676 -3.02559,-3.824123 -5.37973,-3.850304 z M 191.41552,66.58652 c -0.65917,-0.0073 -1.33082,0.09917 -1.98845,0.331704 -3.0063,1.063 -4.58197,4.361873 -3.51896,7.368183 l 6.73658,19.051865 10.88715,-3.849583 -6.7366,-19.051862 c -0.83047,-2.348679 -3.02556,-3.824134 -5.37972,-3.850307 z m 54.75692,11.024595 c -0.28379,0.01093 -0.57075,0.0642 -0.85261,0.163865 l -59.87764,21.171993 c -1.50325,0.531536 -2.29101,2.181037 -1.75948,3.684277 l 1.9248,5.44338 c 0.53153,1.50324 2.18065,2.29102 3.6839,1.75948 l 2.72206,-0.96257 1.92443,5.44338 c 4.65585,13.16732 17.89027,20.84422 31.20508,18.97336 l 5.96681,16.87531 10.88678,-3.84959 -5.96682,-16.87529 c 11.53141,-6.91454 16.9986,-21.20366 12.34276,-34.370985 l -1.92479,-5.443749 2.72169,-0.962215 c 1.50324,-0.531533 2.29101,-2.180671 1.75948,-3.683906 l -1.92479,-5.443757 c -0.43186,-1.221376 -1.60187,-1.970151 -2.83166,-1.922983 z M 226.26978,89.427914 222.58804,108.7348 207.58327,96.035369 c 2.54776,-0.900694 7.6431,-2.702531 7.6431,-2.702531 l 2.81394,2.540833 0.87539,-3.845242 4.36615,-1.543892 3.7e-4,6e-6 z m 6.26127,19.711666 c 0.63601,-0.0142 1.24879,0.40103 1.48239,1.06169 l 3.41369,9.65472 c 0.29033,0.81209 -0.10226,1.69639 -0.87503,1.96964 l -16.59786,5.86878 c -0.77278,0.27325 -1.63434,-0.1676 -1.92298,-0.98391 l -3.41296,-9.65145 c -0.28751,-0.81312 0.1055,-1.69785 0.87829,-1.9711 l 16.59495,-5.8677 c 0.14489,-0.0512 0.29273,-0.0774 0.43953,-0.0806 z m -0.47677,1.1391 c -0.13286,0.005 -0.2671,0.0301 -0.39899,0.0767 l -15.10569,5.34138 c -0.70342,0.24872 -1.07251,1.02155 -0.82476,1.72222 l 2.94091,8.31665 c 0.24872,0.70342 1.02134,1.07239 1.72475,0.82367 l 15.10822,-5.3421 c 0.70342,-0.24872 1.07186,-1.02114 0.82223,-1.72114 l -2.94163,-8.31954 c -0.20129,-0.56929 -0.74931,-0.91985 -1.32504,-0.89783 z m -1.96241,3.49401 1.02046,2.88519 1.69654,-0.59975 -1.49289,3.8702 -3.59673,-2.07057 1.69654,-0.60013 -1.0201,-2.88519 z m -4.58427,1.62093 2.04055,5.77075 -1.69112,0.59795 -1.17056,-3.31023 -0.94631,2.72133 -2.44677,-1.52146 1.17057,3.31024 -1.70196,0.60156 -2.04055,-5.77076 1.69654,-0.59975 2.44677,1.52146 0.94631,-2.72134 z"
         style="fill:#f4f6f7;fill-opacity:1;stroke-width:0.18042821"
         sodipodi:nodetypes="csccccccsscccccccccccccccccccccccccccccccccccccccccccccccccccccccccccccccccccccccccc" />
    </g>
    <path
       style="fill:#324159;fill-opacity:1;stroke-width:0.09723023"
       inkscape:connector-curvature="0"
       d="M 665.5072,39.648688 V 28.758905 c 0,-1.718354 1.39302,-3.111365 3.11138,-3.111365 1.71834,0 3.11136,1.393011 3.11136,3.111365 v 10.889783 z m 10.88979,1.555699 h -34.22504 c -0.85923,0 -1.55568,0.696455 -1.55568,1.555688 v 3.111365 c 0,0.859211 0.69645,1.555666 1.55568,1.555666 h 1.55568 v 3.111387 c 0,7.526191 5.34466,13.803872 12.44548,15.245297 v 9.645633 h 6.22272 V 65.78379 c 7.10082,-1.441425 12.44548,-7.719106 12.44548,-15.245297 v -3.111387 h 1.55568 c 0.85923,0 1.55568,-0.696455 1.55568,-1.555666 v -3.111365 c 0,-0.859233 -0.69645,-1.555688 -1.55568,-1.555688 z M 653.06174,39.648688 V 28.758905 c 0,-1.718354 -1.39302,-3.111365 -3.11138,-3.111365 -1.71834,0 -3.11136,1.393011 -3.11136,3.111365 v 10.889783 z"
       id="path5297" />
    <path
       id="path5295"
       d="M 661.87379,41.327486 V 30.437703 c 0,-1.718354 1.39302,-3.111365 3.11138,-3.111365 1.71834,0 3.11136,1.393011 3.11136,3.111365 v 10.889783 z m 10.88979,1.555688 h -34.22504 c -0.85923,0 -1.55568,0.696454 -1.55568,1.555688 v 3.111365 c 0,0.859211 0.69645,1.555676 1.55568,1.555676 h 1.55568 v 3.111377 c 0,7.526191 5.34466,13.803872 12.44548,15.245308 v 9.645622 h 6.22272 v -9.645622 c 7.10082,-1.441436 12.44548,-7.719117 12.44548,-15.245308 v -3.111377 h 1.55568 c 0.85923,0 1.55568,-0.696465 1.55568,-1.555676 v -3.111365 c 0,-0.859234 -0.69645,-1.555688 -1.55568,-1.555688 z M 649.42833,41.327486 V 30.437703 c 0,-1.718354 -1.39302,-3.111365 -3.11138,-3.111365 -1.71834,0 -3.11136,1.393011 -3.11136,3.111365 v 10.889783 z"
       inkscape:connector-curvature="0"
       style="fill:#3eaf7c;fill-opacity:1;stroke-width:0.09723023" />
    <path
       style="fill:#f0f3f4;fill-opacity:1;stroke-width:0.09410032"
       inkscape:connector-curvature="0"
       d="M 614.01323,39.139326 V 28.600125 c 0,-1.663035 1.34817,-3.011212 3.01121,-3.011212 1.66303,0 3.01121,1.348177 3.01121,3.011212 v 10.539201 z m 10.53923,1.505606 h -33.12331 c -0.83157,0 -1.50561,0.674041 -1.50561,1.505604 v 3.011212 c 0,0.831564 0.67404,1.505604 1.50561,1.505604 h 1.5056 v 3.011212 c 0,7.283931 5.1726,13.359517 12.04484,14.754555 v 9.335127 h 6.02243 v -9.335127 c 6.87224,-1.395038 12.04484,-7.470624 12.04484,-14.754555 v -3.011212 h 1.5056 c 0.83157,0 1.50561,-0.67404 1.50561,-1.505604 v -3.011212 c 0,-0.831563 -0.67404,-1.505604 -1.50561,-1.505604 z M 601.96839,39.139326 V 28.600125 c 0,-1.663035 -1.34818,-3.011212 -3.01122,-3.011212 -1.66303,0 -3.01121,1.348177 -3.01121,3.011212 v 10.539201 z"
       id="path5125" />
    <path
       id="path5123"
       d="M 610.80034,40.886922 V 30.347701 c 0,-1.663034 1.34818,-3.011211 3.01121,-3.011211 1.66304,0 3.01121,1.348177 3.01121,3.011211 v 10.539221 z m 10.53924,1.505607 h -33.12332 c -0.83156,0 -1.5056,0.674041 -1.5056,1.505604 v 3.011212 c 0,0.831563 0.67404,1.505604 1.5056,1.505604 h 1.50561 v 3.011212 c 0,7.28393 5.1726,13.359517 12.04484,14.754555 v 9.335127 h 6.02242 v -9.335127 c 6.87224,-1.395038 12.04484,-7.470625 12.04484,-14.754555 v -3.011212 h 1.50561 c 0.83156,0 1.5056,-0.674041 1.5056,-1.505604 v -3.011212 c 0,-0.831563 -0.67404,-1.505604 -1.5056,-1.505604 z M 598.7555,40.886922 V 30.347701 c 0,-1.663034 -1.34818,-3.011211 -3.01121,-3.011211 -1.66304,0 -3.01121,1.348177 -3.01121,3.011211 v 10.539221 z"
       inkscape:connector-curvature="0"
       style="fill:#3eaf7c;fill-opacity:1;stroke-width:0.09410032" />
    <path
       style="fill:#324159;fill-opacity:1;stroke-width:0.09410032"
       inkscape:connector-curvature="0"
       d="M 607.58745,42.634521 V 32.095284 c 0,-1.663035 1.34818,-3.011212 3.01122,-3.011212 1.66303,0 3.01121,1.348177 3.01121,3.011212 v 10.539237 z m 10.53924,1.505608 h -33.12331 c -0.83157,0 -1.50561,0.674041 -1.50561,1.505604 v 3.011212 c 0,0.831563 0.67404,1.505604 1.50561,1.505604 h 1.5056 v 3.011211 c 0,7.283931 5.1726,13.359518 12.04484,14.754556 v 9.335127 h 6.02243 v -9.335127 c 6.87224,-1.395038 12.04484,-7.470625 12.04484,-14.754556 v -3.011211 h 1.5056 c 0.83157,0 1.50561,-0.674041 1.50561,-1.505604 v -3.011212 c 0,-0.831563 -0.67404,-1.505604 -1.50561,-1.505604 z M 595.54261,42.634521 V 32.095284 c 0,-1.663035 -1.34817,-3.011212 -3.01121,-3.011212 -1.66303,0 -3.01121,1.348177 -3.01121,3.011212 v 10.539237 z"
       id="path5055" />
    <g
       id="g1227"
       transform="translate(9.5250005)" />
    <path
       style="fill:#eef1f3;fill-opacity:1;stroke-width:0.05093773"
       d="m 595.7338,46.959148 5.83209,10.095912 5.82727,-10.095912 h -4.00475 l -1.82252,2.883251 -1.56193,-2.883251 z"
       id="path5016"
       inkscape:connector-curvature="0"
       sodipodi:nodetypes="ccccccc" />
    <path
       id="path5044"
       d="m 609.65372,175.53466 v -10.45104 c 0,-1.64912 1.3369,-2.98601 2.98602,-2.98601 1.64911,0 2.98601,1.33689 2.98601,2.98601 v 10.45104 z m 10.45105,1.49301 h -32.84614 c -0.8246,0 -1.493,0.6684 -1.493,1.49301 v 2.98601 c 0,0.8246 0.6684,1.493 1.493,1.493 h 1.49301 v 2.98602 c 0,7.22297 5.12932,13.24772 11.94405,14.63108 v 9.25701 h 5.97202 v -9.25701 c 6.81473,-1.38336 11.94405,-7.40811 11.94405,-14.63108 v -2.98602 h 1.49301 c 0.8246,0 1.493,-0.6684 1.493,-1.493 v -2.98601 c 0,-0.82461 -0.6684,-1.49301 -1.493,-1.49301 z m -22.39509,-1.49301 v -10.45104 c 0,-1.64912 -1.3369,-2.98601 -2.98602,-2.98601 -1.64911,0 -2.98601,1.33689 -2.98601,2.98601 v 10.45104 z"
       inkscape:connector-curvature="0"
       style="fill:currentColor;stroke-width:0.09331287" />
    <path
       style="fill:#f8f9fa;fill-opacity:1;stroke-width:0.01386102"
       d="m 597.81031,58.95544 c -0.34969,0 -0.63352,0.289971 -0.63352,0.645836 v 4.224222 c 0,0.357266 0.28383,0.647308 0.63352,0.647308 h 7.51076 c 0.34969,0 0.6336,-0.290157 0.63223,-0.646021 v -4.225509 c 0,-0.355865 -0.28384,-0.645836 -0.63352,-0.645836 z m 0.35729,0.315382 h 6.79489 c 0.31642,0 0.57324,0.25696 0.57324,0.572138 v 3.742326 c 0.001,0.315177 -0.25553,0.572137 -0.57195,0.572137 h -6.79618 c -0.31642,0 -0.57324,-0.257005 -0.57324,-0.573424 V 59.84296 c 0,-0.315178 0.25682,-0.572138 0.57324,-0.572138 z m 0.57195,1.145378 v 2.595845 h 0.76567 v -1.489064 l 0.76309,0.954237 0.7631,-0.954237 v 1.489064 h 0.76071 V 60.4162 h -0.7631 l -0.7631,0.954236 -0.76327,-0.954236 z m 4.35177,0 v 1.297922 h -0.76309 l 1.1452,1.336336 1.14409,-1.336336 h -0.7631 V 60.4162 Z"
       id="path5100"
       inkscape:connector-curvature="0" />
    <path
       id="path5127"
       d="m 614.49418,93.270029 h -6.25643 l -4.55605,7.208321 -3.90518,-7.208321 h -14.319 l 18.22418,31.217051 18.22419,-31.217051 z m -24.50502,2.60346 h 4.37706 l 9.31548,16.125151 9.30736,-16.125151 h 4.37705 L 603.6817,119.32085 Z"
       inkscape:connector-curvature="0"
       style="fill:currentColor;stroke-width:0.08135796" />
    <path
       id="path5138"
       d="m 617.25785,133.52921 h -27.15231 c -1.2644,0 -2.29079,1.02639 -2.29079,2.28583 v 14.94964 c 0,1.26439 1.02639,2.29079 2.29079,2.29079 h 27.15726 c 1.2644,0 2.29079,-1.0264 2.28584,-2.28584 v -14.95459 c 0,-1.25944 -1.0264,-2.28583 -2.29079,-2.28583 z M 604.599,148.47884 h -3.04943 v -5.9501 l -3.04942,3.81303 -3.04943,-3.81303 v 5.9501 h -3.05935 v -10.37301 h 3.04943 l 3.04943,3.81303 3.04943,-3.81303 h 3.04942 v 10.37301 z m 6.70874,0.15372 -4.57662,-5.34022 h 3.04943 v -5.18651 h 3.04943 v 5.18651 h 3.04943 z"
       inkscape:connector-curvature="0"
       style="fill:currentColor;stroke-width:0.04958419" />
    <path
       style="fill:#f0f3f4;fill-opacity:1;stroke-width:0.09723023"
       inkscape:connector-curvature="0"
       d="M 658.24038,43.006272 V 32.11649 c 0,-1.718355 1.39302,-3.111365 3.11138,-3.111365 1.71834,0 3.11136,1.39301 3.11136,3.111365 v 10.889782 z m 10.88979,1.555688 h -34.22504 c -0.85923,0 -1.55568,0.696466 -1.55568,1.555689 v 3.111364 c 0,0.859223 0.69645,1.555677 1.55568,1.555677 h 1.55568 v 3.111376 c 0,7.526203 5.34466,13.803872 12.44548,15.245308 v 9.645634 h 6.22272 v -9.645634 c 7.10082,-1.441436 12.44548,-7.719105 12.44548,-15.245308 V 50.78469 h 1.55568 c 0.85923,0 1.55568,-0.696454 1.55568,-1.555677 v -3.111364 c 0,-0.859223 -0.69645,-1.555689 -1.55568,-1.555689 z M 645.79492,43.006272 V 32.11649 c 0,-1.718355 -1.39302,-3.111365 -3.11138,-3.111365 -1.71834,0 -3.11136,1.39301 -3.11136,3.111365 v 10.889782 z"
       id="path5241" />
    <path
       id="path5247"
       d="m 666.49096,131.96234 h -29.82913 c -1.38905,0 -2.51662,1.19111 -2.51662,2.65268 v 17.34888 c 0,1.46732 1.12757,2.65844 2.51662,2.65844 h 29.83457 c 1.38905,0 2.51662,-1.19112 2.51119,-2.65269 v -17.35463 c 0,-1.46157 -1.1276,-2.65268 -2.51663,-2.65268 z"
       inkscape:connector-curvature="0"
       style="fill:currentColor;stroke-width:0.05598614"
       sodipodi:nodetypes="sssssscss" />
    <path
       style="fill:#ffffff;stroke-width:0.04958419"
       inkscape:connector-curvature="0"
       d="m 665.15255,133.52921 h -27.15231 c -1.2644,0 -2.29079,1.02639 -2.29079,2.28583 v 14.94964 c 0,1.26439 1.02639,2.29079 2.29079,2.29079 h 27.15726 c 1.2644,0 2.29079,-1.0264 2.28584,-2.28584 v -14.95459 c 0,-1.25944 -1.0264,-2.28583 -2.29079,-2.28583 z m -12.65885,14.94963 h -3.04943 v -5.9501 l -3.04942,3.81303 -3.04943,-3.81303 v 5.9501 h -3.05935 v -10.37301 h 3.04943 l 3.04943,3.81303 3.04943,-3.81303 h 3.04942 v 10.37301 z m 6.70874,0.15372 -4.57662,-5.34022 h 3.04943 v -5.18651 h 3.04943 v 5.18651 h 3.04943 z"
       id="path5245" />
    <path
       style="fill:currentColor;stroke-width:0.4392781"
       d="m 1840.3066,276.85938 50.2989,87.06445 50.2519,-87.06445 h 23.6348 l -73.8867,126.5996 -73.9317,-126.5996 z m 100.5508,0 z"
       transform="matrix(0.18520833,0,0,0.18520833,299.83039,44.597004)"
       id="path5249"
       inkscape:connector-curvature="0"
       sodipodi:nodetypes="ccccccccc" />
    <rect
       style="fill:#0000ff;fill-opacity:0;stroke:none;stroke-width:0.69999999;stroke-linejoin:miter;stroke-miterlimit:4;stroke-dasharray:none;stroke-opacity:1"
       id="rect5253"
       width="31.90859"
       height="2.6034598"
       x="631.76196"
       y="93.270027" />
    <path
       style="fill:currentColor;stroke-width:0.08135796"
       d="m 640.67069,95.873667 9.3154,16.125063 9.30744,-16.125063 h -6.39728 l -2.91016,4.604523 -2.49453,-4.604523 z"
       id="path5264"
       inkscape:connector-curvature="0"
       sodipodi:nodetypes="ccccccc" />
    <rect
       y="93.270027"
       x="679.75018"
       height="2.6034598"
       width="31.90859"
       id="rect5266"
       style="fill:#0000ff;fill-opacity:0;stroke:none;stroke-width:0.69999999;stroke-linejoin:miter;stroke-miterlimit:4;stroke-dasharray:none;stroke-opacity:1" />
    <path
       sodipodi:nodetypes="ccccccccc"
       inkscape:connector-curvature="0"
       id="path5274"
       d="m 688.65872,95.873667 9.31578,16.125063 9.30707,-16.125063 h 4.37736 L 697.9745,119.32097 684.28173,95.873667 Z m 18.62285,0 z"
       style="fill:currentColor;stroke-width:0.08135796" />
    <rect
       y="93.270027"
       x="679.75018"
       height="2.6034598"
       width="31.90859"
       id="rect5276"
       style="fill:#0000ff;fill-opacity:0;stroke:none;stroke-width:0.69999999;stroke-linejoin:miter;stroke-miterlimit:4;stroke-dasharray:none;stroke-opacity:1" />
    <path
       sodipodi:nodetypes="ccccccc"
       inkscape:connector-curvature="0"
       id="path5278"
       d="m 688.65891,95.873667 9.3154,16.125063 9.30744,-16.125063 h -6.39728 l -2.91016,4.604523 -2.49453,-4.604523 z"
       style="fill:currentColor;stroke-width:0.08135796" />
    <path
       style="fill:currentColor;stroke-width:0.30228737"
       d="m 2075.2402,471.71289 c -7.4999,0 -13.5879,6.43273 -13.5879,14.32422 v 93.67187 c 0,7.92254 6.088,14.35352 13.5879,14.35352 h 161.0879 c 7.5,0 13.5879,-6.43077 13.5586,-14.32227 v -93.70312 c 0,-7.89149 -6.088,-14.32422 -13.5879,-14.32422 z m 7.2266,8.46094 h 146.6055 c 6.8268,0 12.3691,5.54167 12.3691,12.34179 v 80.74415 c 0.027,6.80012 -5.5168,12.34179 -12.3437,12.34179 h -146.6309 c -6.8269,0 -12.3672,-5.54033 -12.3672,-12.36718 v -80.71876 c 0,-6.80012 5.5403,-12.34179 12.3672,-12.34179 z m 12.3437,24.71094 v 56.00781 h 16.5176 v -32.12696 l 16.4649,20.5879 16.4648,-20.5879 v 32.12696 h 16.4121 v -56.00781 h -16.4648 l -16.4649,20.58789 -16.4648,-20.58789 z m 93.8887,0 v 28.0039 h -16.4648 l 24.7109,28.83399 24.6836,-28.83399 h -16.4648 v -28.0039 z"
       transform="matrix(0.18520833,0,0,0.18520833,299.83039,44.597004)"
       id="path5280"
       inkscape:connector-curvature="0" />
    <path
       id="path5285"
       d="m 647.27498,58.161682 c -0.44171,0 -0.80025,0.378853 -0.80025,0.843614 v 5.516685 c 0,0.466587 0.35854,0.845327 0.80025,0.845327 h 9.48707 c 0.4417,0 0.80023,-0.378729 0.79851,-0.84349 v -5.518522 c 0,-0.464761 -0.35855,-0.843614 -0.80024,-0.843614 z m 0.4256,0.4983 h 8.63414 c 0.40206,0 0.72846,0.32637 0.72846,0.72686 v 4.755317 c 10e-4,0.40049 -0.3249,0.72686 -0.72696,0.72686 h -8.63564 c -0.40206,0 -0.72835,-0.326302 -0.72835,-0.728359 v -4.753818 c 0,-0.40049 0.32629,-0.72686 0.72835,-0.72686 z m 0.72697,1.45532 v 3.298509 h 0.97278 v -1.892076 l 0.96968,1.212504 0.96968,-1.212504 v 1.892076 h 0.96657 v -3.298509 h -0.96968 l -0.96968,1.212493 -0.96967,-1.212493 z m 5.52945,0 v 1.649249 h -0.96967 l 1.45532,1.698148 1.45371,-1.698148 h -0.96968 v -1.649249 z"
       style="fill:#ffffff;stroke-width:0.01780283"
       inkscape:connector-curvature="0" />
    <rect
       style="fill:#ffffff;fill-opacity:0;stroke:none;stroke-width:0.27309659;stroke-linejoin:miter;stroke-miterlimit:4;stroke-dasharray:none;stroke-opacity:1"
       id="rect5287"
       width="12.448753"
       height="1.0157086"
       x="645.79333"
       y="46.044434" />
    <path
       style="fill:#ffffff;stroke-width:0.03174083"
       d="m 648.38484,47.06021 3.63443,6.291001 3.63105,-6.291001 h 1.70777 l -5.33882,9.147683 -5.34206,-9.147683 z m 7.26548,0 z"
       id="path5289"
       inkscape:connector-curvature="0"
       sodipodi:nodetypes="ccccccccc" />
    <rect
       style="fill:#ffffff;fill-opacity:0;stroke:none;stroke-width:0.27309659;stroke-linejoin:miter;stroke-miterlimit:4;stroke-dasharray:none;stroke-opacity:1"
       id="rect5291"
       width="12.448753"
       height="1.0157086"
       x="645.79333"
       y="46.044434" />
    <path
       style="fill:#ffffff;stroke-width:0.03174083"
       d="m 648.38492,47.06021 3.63429,6.291001 3.63117,-6.291001 h -2.49581 l -1.13536,1.796397 -0.97322,-1.796397 z"
       id="path5293"
       inkscape:connector-curvature="0"
       sodipodi:nodetypes="ccccccc" />
    <g
       id="g5323"
       transform="rotate(-19.473127,104.59961,285.30349)"
       inkscape:export-xdpi="100"
       inkscape:export-ydpi="100">
      <path
         style="fill:url(#linearGradient5469);fill-opacity:1;stroke-width:0.18042821"
         inkscape:connector-curvature="0"
         d="m 409.39752,166.21708 v -20.20795 c 0,-3.18872 2.585,-5.7737 5.77373,-5.7737 3.18869,0 5.77369,2.58498 5.77369,5.7737 v 20.20795 z m 20.20797,2.88688 h -63.51073 c -1.59445,0 -2.88684,1.29241 -2.88684,2.88687 v 5.77369 c 0,1.59441 1.29239,2.88682 2.88684,2.88682 h 2.88685 v 5.77375 c 0,13.9662 9.91798,25.61556 23.09483,28.29038 v 17.89922 h 11.54738 v -17.89922 c 13.17685,-2.67482 23.09483,-14.32418 23.09483,-28.29038 v -5.77375 h 2.88684 c 1.59446,0 2.88684,-1.29241 2.88684,-2.88682 v -5.77369 c 0,-1.59446 -1.29238,-2.88687 -2.88684,-2.88687 z m -43.30276,-2.88688 v -20.20795 c 0,-3.18872 -2.585,-5.7737 -5.77373,-5.7737 -3.18869,0 -5.77368,2.58498 -5.77368,5.7737 v 20.20795 z"
         id="path5299" />
      <path
         style="fill:url(#linearGradient5417);fill-opacity:1;stroke-width:0.97419053"
         d="m 247.74805,28.380859 c -3.55903,-0.03958 -7.18559,0.533555 -10.73633,1.789063 -16.23209,5.739519 -24.73758,23.55106 -18.99805,39.783203 l 36.37305,102.869145 58.7832,-20.78516 -36.375,-102.869141 C 272.31091,36.486607 260.45884,28.522216 247.74805,28.380859 Z M 71.404297,90.734375 c -3.559043,-0.03957 -7.185558,0.535496 -10.736328,1.791016 -16.231939,5.739464 -24.739537,23.551059 -19,39.783199 l 36.375,102.86719 58.781251,-20.78516 -36.37305,-102.86718 C 95.967159,98.842076 84.115163,90.875706 71.404297,90.734375 Z M 367.05469,150.25977 c -1.53232,0.0588 -3.08166,0.34665 -4.60352,0.88476 L 39.152344,265.45898 c -8.116555,2.86994 -12.369958,11.77598 -9.5,19.89258 l 10.392578,29.39063 c 2.869867,8.11635 11.776023,12.36994 19.892578,9.5 l 14.695312,-5.19727 10.390626,29.39063 c 25.138402,71.09461 96.595392,112.5448 168.486332,102.44336 l 32.21679,91.11523 58.78125,-20.78516 -32.21679,-91.11523 C 374.55286,392.76 404.072,315.60633 378.93359,244.51172 l -10.39257,-29.39063 14.69531,-5.19531 c 8.11655,-2.86994 12.36987,-11.77623 9.5,-19.89258 l -10.39258,-29.39062 c -2.33184,-6.59474 -8.64902,-10.63756 -15.28906,-10.38281 z m -152.30664,97.50195 -13.28907,71.55469 -55.34375,-47.28711 25.13672,-8.88868 15.19336,13.71876 4.72657,-20.76172 z"
         transform="matrix(0.17461404,0.06174192,-0.06174192,0.17461404,368.90584,123.44896)"
         id="path5301"
         inkscape:connector-curvature="0" />
      <path
         id="path5376"
         transform="matrix(0.17461404,0.06174192,-0.06174192,0.17461404,368.90584,123.44896)"
         d="m 219.0332,56.375 c -3.55901,-0.03958 -7.18559,0.533555 -10.73632,1.789062 -16.23216,5.739538 -24.73755,23.551162 -18.99805,39.783204 l 36.37305,102.869144 58.7832,-20.78516 -36.375,-102.867188 C 243.59609,64.482781 231.74398,56.516358 219.0332,56.375 Z M 42.689453,118.72852 c -3.559049,-0.0396 -7.185547,0.53549 -10.736328,1.79101 -16.231939,5.73947 -24.7395009,23.55116 -19,39.7832 L 49.326172,263.16992 108.10938,242.38477 71.736328,139.51758 C 67.252343,126.8363 55.400343,118.86983 42.689453,118.72852 Z m 295.650387,59.52539 c -1.53231,0.0588 -3.08167,0.34665 -4.60351,0.88476 L 10.4375,293.45312 c -8.1165551,2.86995 -12.3699034,11.77613 -9.5,19.89258 l 10.392578,29.39063 c 2.869903,8.11645 11.77407,12.36994 19.890625,9.5 l 14.697266,-5.19727 10.390625,29.39063 c 25.13842,71.09466 96.595356,112.5447 168.486326,102.44336 l 32.2168,91.11523 58.78125,-20.78516 -32.2168,-91.11523 c 62.26181,-37.33385 91.781,-114.48542 66.64258,-185.58008 l -10.39258,-29.39258 14.69531,-5.19531 c 8.11651,-2.86992 12.36991,-11.77417 9.5,-19.89062 l -10.39257,-29.39258 c -2.3318,-6.59462 -8.64903,-10.63751 -15.28907,-10.38281 z M 230.87891,242.05664 211,346.30078 l -81.01562,-68.56836 16.13085,-5.70312 25.13672,-8.88868 15.19336,13.71876 4.72657,-20.76172 23.57421,-8.33594 h 0.002 z"
         style="fill:url(#linearGradient5409);fill-opacity:1;stroke-width:0.97419053"
         inkscape:connector-curvature="0" />
      <path
         style="fill:url(#linearGradient5483);fill-opacity:1;stroke-width:0.97419053"
         d="m 219.0332,56.375 c -3.55901,-0.03958 -7.18559,0.533555 -10.73632,1.789062 -16.23217,5.739539 -24.73755,23.551161 -18.99805,39.783204 l 36.37305,102.869144 58.7832,-20.78516 -36.375,-102.867188 C 243.59609,64.482781 231.74398,56.516358 219.0332,56.375 Z M 42.689453,118.72852 c -3.559049,-0.0396 -7.185547,0.53549 -10.736328,1.79101 -16.231939,5.73947 -24.7395011,23.55116 -19,39.7832 L 49.326172,263.16992 108.10938,242.38477 71.736328,139.51758 C 67.252343,126.8363 55.400343,118.86983 42.689453,118.72852 Z m 295.650387,59.52539 c -1.53231,0.0588 -3.08167,0.34665 -4.60351,0.88476 L 10.4375,293.45312 c -8.1165552,2.86996 -12.3699035,11.77613 -9.5,19.89258 l 10.392578,29.39063 c 2.869903,8.11645 11.77407,12.36994 19.890625,9.5 l 14.697266,-5.19727 10.390625,29.39063 c 25.138421,71.09466 96.595356,112.5447 168.486326,102.44336 l 32.2168,91.11523 58.78125,-20.78516 -32.2168,-91.11523 c 62.26181,-37.33385 91.781,-114.48542 66.64258,-185.58008 l -10.39258,-29.39258 14.69531,-5.19531 c 8.11651,-2.86992 12.36991,-11.77417 9.5,-19.89062 l -10.39257,-29.39258 c -2.3318,-6.59462 -8.64903,-10.63751 -15.28907,-10.38281 z M 230.87891,242.05664 211,346.30078 l -81.01562,-68.56836 16.13085,-5.70312 25.13672,-8.88868 15.19336,13.71876 4.72657,-20.76172 23.57421,-8.33594 h 0.002 z m 33.80664,106.42969 c 3.43402,-0.0765 6.74261,2.16532 8.0039,5.73242 l 18.43164,52.12891 c 1.56859,4.38448 -0.55215,9.15942 -4.72461,10.63476 l -89.61718,31.6875 c -4.17251,1.47536 -8.82435,-0.90496 -10.38282,-5.3125 l -18.42773,-52.11133 c -1.55236,-4.39027 0.56968,-9.16721 4.74219,-10.64257 l 89.60156,-31.68164 c 0.78232,-0.27662 1.58058,-0.41791 2.37305,-0.43555 z m -2.57422,6.15039 c -0.71735,0.0274 -1.44217,0.16226 -2.1543,0.41406 l -81.56055,28.83984 c -3.79795,1.34293 -5.7908,5.5157 -4.45312,9.29883 l 15.87891,44.9043 c 1.34293,3.798 5.51454,5.79019 9.3125,4.44727 l 81.57421,-28.84375 c 3.79796,-1.34292 5.78732,-5.51344 4.43946,-9.29297 l -15.88282,-44.91992 c -1.08686,-3.0738 -4.04577,-4.96659 -7.15429,-4.84766 z m -10.59571,18.86523 5.50977,15.57813 9.16016,-3.23828 -8.06055,20.89648 -19.41992,-11.17969 9.16015,-3.24023 -5.50781,-15.57813 z m -24.75195,8.75196 11.01758,31.1582 -9.13086,3.22851 -6.32031,-17.87304 -5.10938,14.69336 -13.21093,-8.21485 6.32031,17.87305 -9.18946,3.24805 -11.01757,-31.15821 9.16015,-3.23828 13.21094,8.21485 5.10938,-14.69336 z"
         transform="matrix(0.17461404,0.06174192,-0.06174192,0.17461404,368.90584,123.44896)"
         id="path5303"
         inkscape:connector-curvature="0" />
      <rect
         style="fill:#ffffff;fill-opacity:0;stroke:none;stroke-width:0.50677991;stroke-linejoin:miter;stroke-miterlimit:4;stroke-dasharray:none;stroke-opacity:1"
         id="rect5307"
         width="23.100904"
         height="1.8848302"
         x="372.81491"
         y="178.08556" />
      <rect
         style="fill:#ffffff;fill-opacity:0;stroke:none;stroke-width:0.50677991;stroke-linejoin:miter;stroke-miterlimit:4;stroke-dasharray:none;stroke-opacity:1"
         id="rect5311"
         width="23.100904"
         height="1.8848302"
         x="372.81491"
         y="178.08556" />
    </g>
    <g
       transform="matrix(0.59668518,-0.21098241,0.21098241,0.59668518,439.43832,21.708834)"
       id="g5366">
      <path
         id="path5354"
         d="m 409.39752,166.21708 v -20.20795 c 0,-3.18872 2.585,-5.7737 5.77373,-5.7737 3.18869,0 5.77369,2.58498 5.77369,5.7737 v 20.20795 z m 20.20797,2.88688 h -63.51073 c -1.59445,0 -2.88684,1.29241 -2.88684,2.88687 v 5.77369 c 0,1.59441 1.29239,2.88682 2.88684,2.88682 h 2.88685 v 5.77375 c 0,13.9662 9.91798,25.61556 23.09483,28.29038 v 17.89922 h 11.54738 v -17.89922 c 13.17685,-2.67482 23.09483,-14.32418 23.09483,-28.29038 v -5.77375 h 2.88684 c 1.59446,0 2.88684,-1.29241 2.88684,-2.88682 v -5.77369 c 0,-1.59446 -1.29238,-2.88687 -2.88684,-2.88687 z m -43.30276,-2.88688 v -20.20795 c 0,-3.18872 -2.585,-5.7737 -5.77373,-5.7737 -3.18869,0 -5.77368,2.58498 -5.77368,5.7737 v 20.20795 z"
         inkscape:connector-curvature="0"
         style="fill:#324159;fill-opacity:1;stroke-width:0.18042821" />
      <path
         id="path5356"
         transform="matrix(0.17461404,0.06174192,-0.06174192,0.17461404,368.90584,123.44896)"
         d="m 247.74805,28.380859 c -3.55903,-0.03958 -7.18559,0.533555 -10.73633,1.789063 -16.23209,5.739519 -24.73758,23.55106 -18.99805,39.783203 l 36.37305,102.869145 58.7832,-20.78516 -36.375,-102.869141 C 272.31091,36.486607 260.45884,28.522216 247.74805,28.380859 Z M 71.404297,90.734375 c -3.559043,-0.03957 -7.185558,0.535496 -10.736328,1.791016 -16.231939,5.739464 -24.739537,23.551059 -19,39.783199 l 36.375,102.86719 58.781251,-20.78516 -36.37305,-102.86718 C 95.967159,98.842076 84.115163,90.875706 71.404297,90.734375 Z M 367.05469,150.25977 c -1.53232,0.0588 -3.08166,0.34665 -4.60352,0.88476 L 39.152344,265.45898 c -8.116555,2.86994 -12.369958,11.77598 -9.5,19.89258 l 10.392578,29.39063 c 2.869867,8.11635 11.776023,12.36994 19.892578,9.5 l 14.695312,-5.19727 10.390626,29.39063 c 25.138402,71.09461 96.595392,112.5448 168.486332,102.44336 l 32.21679,91.11523 58.78125,-20.78516 -32.21679,-91.11523 C 374.55286,392.76 404.072,315.60633 378.93359,244.51172 l -10.39257,-29.39063 14.69531,-5.19531 c 8.11655,-2.86994 12.36987,-11.77623 9.5,-19.89258 l -10.39258,-29.39062 c -2.33184,-6.59474 -8.64902,-10.63756 -15.28906,-10.38281 z m -152.30664,97.50195 -13.28907,71.55469 -55.34375,-47.28711 25.13672,-8.88868 15.19336,13.71876 4.72657,-20.76172 z"
         style="fill:#3eaf7c;fill-opacity:1;stroke-width:0.97419053"
         inkscape:connector-curvature="0" />
      <path
         id="path5358"
         transform="matrix(0.17461404,0.06174192,-0.06174192,0.17461404,368.90584,123.44896)"
         d="m 219.0332,56.375 c -3.55901,-0.03958 -7.18559,0.533555 -10.73632,1.789062 -16.23216,5.739538 -24.73755,23.551162 -18.99805,39.783204 l 36.37305,102.869144 58.7832,-20.78516 -36.375,-102.867188 C 243.59609,64.482781 231.74398,56.516358 219.0332,56.375 Z M 42.689453,118.72852 c -3.559049,-0.0396 -7.185547,0.53549 -10.736328,1.79101 -16.231939,5.73947 -24.7395009,23.55116 -19,39.7832 L 49.326172,263.16992 108.10938,242.38477 71.736328,139.51758 C 67.252343,126.8363 55.400343,118.86983 42.689453,118.72852 Z m 295.650387,59.52539 c -1.53231,0.0588 -3.08167,0.34665 -4.60351,0.88476 L 10.4375,293.45312 c -8.1165551,2.86995 -12.3699034,11.77613 -9.5,19.89258 l 10.392578,29.39063 c 2.869903,8.11645 11.77407,12.36994 19.890625,9.5 l 14.697266,-5.19727 10.390625,29.39063 c 25.13842,71.09466 96.595356,112.5447 168.486326,102.44336 l 32.2168,91.11523 58.78125,-20.78516 -32.2168,-91.11523 c 62.26181,-37.33385 91.781,-114.48542 66.64258,-185.58008 l -10.39258,-29.39258 14.69531,-5.19531 c 8.11651,-2.86992 12.36991,-11.77417 9.5,-19.89062 l -10.39257,-29.39258 c -2.3318,-6.59462 -8.64903,-10.63751 -15.28907,-10.38281 z M 230.87891,242.05664 211,346.30078 l -81.01562,-68.56836 16.13085,-5.70312 25.13672,-8.88868 15.19336,13.71876 4.72657,-20.76172 23.57421,-8.33594 h 0.002 z"
         style="fill:#f0f3f4;fill-opacity:1;stroke-width:0.97419053"
         inkscape:connector-curvature="0" />
      <path
         inkscape:connector-curvature="0"
         style="fill:#ffffff;stroke-width:0.03303636"
         d="m 375.56435,200.57129 c -0.81967,0 -1.485,0.70302 -1.485,1.56547 v 10.23719 c 0,0.86584 0.66533,1.56866 1.485,1.56866 h 17.60497 c 0.81966,0 1.48497,-0.7028 1.48178,-1.56524 v -10.24061 c 0,-0.86245 -0.66535,-1.56547 -1.48499,-1.56547 z m 0.78978,0.92468 h 16.0222 c 0.7461,0 1.35179,0.60564 1.35179,1.34882 v 8.82434 c 0.002,0.74318 -0.60291,1.34882 -1.349,1.34882 h -16.02499 c -0.74609,0 -1.35158,-0.60551 -1.35158,-1.35161 v -8.82155 c 0,-0.74318 0.60549,-1.34882 1.35158,-1.34882 z m 1.34903,2.70061 v 6.12096 h 1.80516 v -3.51107 l 1.79942,2.25001 1.79942,-2.25001 v 3.51107 h 1.79364 v -6.12096 h -1.79941 l -1.79942,2.25 -1.7994,-2.25 z m 10.26089,0 v 3.06046 h -1.7994 l 2.70061,3.15123 2.69762,-3.15123 h -1.79942 v -3.06046 z"
         id="path5360" />
      <rect
         y="178.08556"
         x="372.81491"
         height="1.8848302"
         width="23.100904"
         id="rect5362"
         style="fill:#ffffff;fill-opacity:0;stroke:none;stroke-width:0.50677991;stroke-linejoin:miter;stroke-miterlimit:4;stroke-dasharray:none;stroke-opacity:1" />
      <rect
         y="178.08556"
         x="372.81491"
         height="1.8848302"
         width="23.100904"
         id="rect5364"
         style="fill:#ffffff;fill-opacity:0;stroke:none;stroke-width:0.50677991;stroke-linejoin:miter;stroke-miterlimit:4;stroke-dasharray:none;stroke-opacity:1" />
    </g>
    <path
       style="fill:#389f6d;fill-opacity:1;stroke-width:0.09410032"
       inkscape:connector-curvature="0"
       d="M 567.39577,40.886922 V 30.347701 c 0,-1.663034 1.34818,-3.011211 3.01121,-3.011211 1.66304,0 3.01121,1.348177 3.01121,3.011211 v 10.539221 z m 10.53924,1.505607 h -33.12332 c -0.83156,0 -1.5056,0.674041 -1.5056,1.505604 v 3.011212 c 0,0.831563 0.67404,1.505604 1.5056,1.505604 h 1.50561 v 3.011212 c 0,7.28393 5.1726,13.359517 12.04484,14.754555 v 9.335127 h 6.02242 v -9.335127 c 6.87224,-1.395038 12.04484,-7.470625 12.04484,-14.754555 v -3.011212 h 1.50561 c 0.83156,0 1.5056,-0.674041 1.5056,-1.505604 v -3.011212 c 0,-0.831563 -0.67404,-1.505604 -1.5056,-1.505604 z M 555.35093,40.886922 V 30.347701 c 0,-1.663034 -1.34818,-3.011211 -3.01121,-3.011211 -1.66304,0 -3.01121,1.348177 -3.01121,3.011211 v 10.539221 z"
       id="path5451" />
    <path
       style="fill:#9aeba4;fill-opacity:1;stroke-width:0.09410032"
       inkscape:connector-curvature="0"
       d="M 524.28159,40.886922 V 30.347701 c 0,-1.663034 1.34818,-3.011211 3.01121,-3.011211 1.66304,0 3.01121,1.348177 3.01121,3.011211 v 10.539221 z m 10.53924,1.505607 h -33.12332 c -0.83156,0 -1.5056,0.674041 -1.5056,1.505604 v 3.011212 c 0,0.831563 0.67404,1.505604 1.5056,1.505604 h 1.50561 v 3.011212 c 0,7.28393 5.1726,13.359517 12.04484,14.754555 v 9.335127 h 6.02242 v -9.335127 c 6.87224,-1.395038 12.04484,-7.470625 12.04484,-14.754555 v -3.011212 h 1.50561 c 0.83156,0 1.5056,-0.674041 1.5056,-1.505604 v -3.011212 c 0,-0.831563 -0.67404,-1.505604 -1.5056,-1.505604 z M 512.23675,40.886922 V 30.347701 c 0,-1.663034 -1.34818,-3.011211 -3.01121,-3.011211 -1.66304,0 -3.01121,1.348177 -3.01121,3.011211 v 10.539221 z"
       id="path5453" />
    <path
       id="path5455"
       d="m 567.39577,-14.167125 v -10.539221 c 0,-1.663034 1.34818,-3.011211 3.01121,-3.011211 1.66304,0 3.01121,1.348177 3.01121,3.011211 v 10.539221 z m 10.53924,1.505607 h -33.12332 c -0.83156,0 -1.5056,0.674041 -1.5056,1.505604 v 3.011212 c 0,0.831563 0.67404,1.505604 1.5056,1.505604 h 1.50561 v 3.011212 c 0,7.28393 5.1726,13.359517 12.04484,14.754555 v 9.335127 h 6.02242 V 11.126669 C 571.2568,9.731631 576.4294,3.656044 576.4294,-3.627886 v -3.011212 h 1.50561 c 0.83156,0 1.5056,-0.674041 1.5056,-1.505604 v -3.011212 c 0,-0.831563 -0.67404,-1.505604 -1.5056,-1.505604 z m -22.58408,-1.505607 v -10.539221 c 0,-1.663034 -1.34818,-3.011211 -3.01121,-3.011211 -1.66304,0 -3.01121,1.348177 -3.01121,3.011211 v 10.539221 z"
       inkscape:connector-curvature="0"
       style="fill:#2f344a;fill-opacity:1;stroke-width:0.09410032" />
    <path
       id="path5457"
       d="m 524.28159,-14.167125 v -10.539221 c 0,-1.663034 1.34818,-3.011211 3.01121,-3.011211 1.66304,0 3.01121,1.348177 3.01121,3.011211 v 10.539221 z m 10.53924,1.505607 h -33.12332 c -0.83156,0 -1.5056,0.674041 -1.5056,1.505604 v 3.011212 c 0,0.831563 0.67404,1.505604 1.5056,1.505604 h 1.50561 v 3.011212 c 0,7.28393 5.1726,13.359517 12.04484,14.754555 v 9.335127 h 6.02242 v -9.335127 c 6.87224,-1.395038 12.04484,-7.470625 12.04484,-14.754555 v -3.011212 h 1.50561 c 0.83156,0 1.5056,-0.674041 1.5056,-1.505604 v -3.011212 c 0,-0.831563 -0.67404,-1.505604 -1.5056,-1.505604 z m -22.58408,-1.505607 v -10.539221 c 0,-1.663034 -1.34818,-3.011211 -3.01121,-3.011211 -1.66304,0 -3.01121,1.348177 -3.01121,3.011211 v 10.539221 z"
       inkscape:connector-curvature="0"
       style="fill:#60698a;fill-opacity:1;stroke-width:0.09410032" />
    <path
       style="fill:#f4f6f7;fill-opacity:1;stroke-width:0.09410032"
       inkscape:connector-curvature="0"
       d="m 567.39577,-70.917484 v -10.539221 c 0,-1.663034 1.34818,-3.011211 3.01121,-3.011211 1.66304,0 3.01121,1.348177 3.01121,3.011211 v 10.539221 z m 10.53924,1.505607 h -33.12332 c -0.83156,0 -1.5056,0.674041 -1.5056,1.505604 v 3.011212 c 0,0.831563 0.67404,1.505604 1.5056,1.505604 h 1.50561 v 3.011212 c 0,7.28393 5.1726,13.359517 12.04484,14.754555 v 9.335127 h 6.02242 v -9.335127 c 6.87224,-1.395038 12.04484,-7.470625 12.04484,-14.754555 v -3.011212 h 1.50561 c 0.83156,0 1.5056,-0.674041 1.5056,-1.505604 v -3.011212 c 0,-0.831563 -0.67404,-1.505604 -1.5056,-1.505604 z m -22.58408,-1.505607 v -10.539221 c 0,-1.663034 -1.34818,-3.011211 -3.01121,-3.011211 -1.66304,0 -3.01121,1.348177 -3.01121,3.011211 v 10.539221 z"
       id="path5459" />
    <path
       style="fill:#ffffff;fill-opacity:1;stroke-width:0.09410032"
       inkscape:connector-curvature="0"
       d="m 524.28159,-70.917484 v -10.539221 c 0,-1.663034 1.34818,-3.011211 3.01121,-3.011211 1.66304,0 3.01121,1.348177 3.01121,3.011211 v 10.539221 z m 10.53924,1.505607 h -33.12332 c -0.83156,0 -1.5056,0.674041 -1.5056,1.505604 v 3.011212 c 0,0.831563 0.67404,1.505604 1.5056,1.505604 h 1.50561 v 3.011212 c 0,7.28393 5.1726,13.359517 12.04484,14.754555 v 9.335127 h 6.02242 v -9.335127 c 6.87224,-1.395038 12.04484,-7.470625 12.04484,-14.754555 v -3.011212 h 1.50561 c 0.83156,0 1.5056,-0.674041 1.5056,-1.505604 v -3.011212 c 0,-0.831563 -0.67404,-1.505604 -1.5056,-1.505604 z m -22.58408,-1.505607 v -10.539221 c 0,-1.663034 -1.34818,-3.011211 -3.01121,-3.011211 -1.66304,0 -3.01121,1.348177 -3.01121,3.011211 v 10.539221 z"
       id="path5461" />
  </g>
</svg>
