<svg version="1" xmlns="http://www.w3.org/2000/svg" width="933.333" height="933.333" viewBox="0 0 700.000000 700.000000"><path d="M413.8 1.9c-3.1 1-7.2 2.8-9.1 4-8 4.9-15.4 15.8-17.1 25.2-.6 3.4-.9 3.7-5.1 4.2-5.9.8-13.6 4.8-19.1 9.9-4.5 4.2-9.8 13.8-10.9 20-.6 3.4-1 3.6-5.1 4.3-13.5 2-26.3 14.1-30 28.4-2.8 11-2.3 13 11.6 52.1 2.8 8 5.8 16.4 6.6 18.8.8 2.3 5.5 15.6 10.4 29.4 5 13.8 9 25.7 9 26.3 0 .7-15.3 6.6-34.7 13.4-19.2 6.7-35.7 12.6-36.8 13.1-6.8 2.9-29.5 10.3-30 9.8s-6.4-17.2-6.2-17.4c.1-.1 2.9-1.1 6.2-2.2 3.3-1.2 11.2-4 17.5-6.2 6.3-2.3 13-4.6 14.8-5.1 3.5-1.1 3.7-1.5 2.1-5.6-.6-1.5-4-11.1-7.6-21.3-5.7-16.2-11.9-33.4-13.6-38-.3-.8-2.4-6.9-4.7-13.5-18.9-54.1-18.7-53.5-23-59.2-13.5-17.9-39-20.7-55.4-6.1-6.6 5.9-9.8 11-12.2 19.4-1.2 4.6-2.1 6.1-3.3 5.9-2.1-.3-11.1 2.8-14.8 5.1-4.3 2.7-12 11-14.1 15.2-1.1 2-2.5 6.1-3.2 9-.7 2.9-1.4 5.1-1.7 4.9-.7-.8-8.3 1.2-13 3.4-9 4.1-17.6 14.4-20.3 24.4-2.6 9.5-1.7 16.4 4.5 34 3.1 8.8 8.3 23.4 11.5 32.5 3.2 9.1 8.3 23.5 11.3 32s8.2 23.2 11.5 32.6l6 17-7.7 2.8c-4.2 1.5-8.9 3.8-10.4 5.1-4.4 3.9-6.6 9.9-6.1 16.5l.5 5.7-6.3 2.2c-3.5 1.2-9.5 3.4-13.5 4.8-11.7 4.1-17.1 11.2-16.1 21.2.3 2.5 3.7 13.6 7.6 24.6 6.4 17.7 7.7 20.4 11.1 23.7 4.3 4.1 9.8 6 15.2 5.2 1.9-.3 7.7-2 12.8-3.9l9.2-3.3 1 2.6c.6 1.5 2.8 7.6 4.9 13.7 13.5 39.2 22.9 57.3 40.3 78.1 29.9 35.9 68.6 58.1 116.7 67 10 1.8 41.7 2.7 50.5 1.4 3.3-.5 6.1-.7 6.3-.6.3.4 12.1 33.4 27.1 75.6 11 31.1 12.5 35.3 12.8 35.9.2.3 37.7-12.7 42.8-14.9 2.4-1 24-8.5 27.3-9.5 1.3-.4 2.1-1.2 1.9-1.8-2.1-5.7-6-18.7-5.6-19 .2-.2 9.2-3.5 19.9-7.2s19.9-7.1 20.3-7.5c.4-.4-.6-4.4-2.3-9-1.6-4.6-3-8.9-3-9.5 0-1.1 6.7-3.7 31.8-12.5 5-1.8 9.2-3.6 9.2-4 0-.7-6.6-19.8-16.5-47.5-2.5-7.2-6.3-18-8.4-24-2.2-6.1-5.8-16.3-8.1-22.8l-4.1-11.8 4.3-4.7c2.4-2.6 5.4-6.1 6.8-7.7 1.4-1.7 5.2-5.2 8.5-7.9 8.7-7.2 24.3-23.1 30.2-30.6 22.4-29.1 37-65 40.1-98.9 1.3-14.4.7-38.4-1.3-49.6-2.9-16.1-4.6-22.1-13.6-48-3.9-11-7.2-20.5-7.4-21.1-.2-.7 3.8-2.6 9.6-4.5 14.5-4.9 20-10.2 20.5-19.8.2-4.2-.6-6.8-12.6-40.9-2.5-6.8-4-8.9-9.2-12.3-6.2-4.2-11-3.9-26.5 1.7-7 2.5-15.9 5.6-19.8 6.9-3.8 1.3-12.2 4.2-18.5 6.5-6.3 2.3-13.3 4.8-15.5 5.5-2.2.7-10.4 3.6-18.2 6.4l-14.2 5-2.6-7.7c-1.5-4.2-2.9-8.3-3.2-8.9-.5-1.5-.2-1.6 21.7-9.3 17-6 20-7.1 20-7.4 0-.1-1.4-4-3.1-8.7-1.7-4.6-5.1-14.3-7.6-21.4-2.4-7.2-5.1-14.4-5.9-16.2-.8-1.7-1.4-3.4-1.4-3.8 0-.4-2.7-8.4-6.1-17.9-3.3-9.4-8.1-23-10.6-30.1-2.5-7.2-4.9-13.9-5.3-15-.5-1.1-1.6-4.3-2.5-7-4.5-13.9-11.2-22.3-22.3-27.7-7.9-3.9-18.6-4.7-27.4-1.9z"/></svg>