<svg version="1" xmlns="http://www.w3.org/2000/svg" width="933.333" height="933.333" viewBox="0 0 700.000000 700.000000"><path d="M412.2 2c-13.5 4.9-20.5 13.6-25.7 31.6-.2.6-2.1 1.3-4.2 1.6-13.2 1.8-27.7 16.2-29.9 29.6l-.6 3.9 6.3.5c11.2 1 21.5 7.1 28 16.4 2.1 3.1 10.4 25.2 26 69.6 12.6 35.8 22.8 65.2 22.6 65.4-.3.3-70.8 25.4-71.4 25.4-.1 0-1.5-4.2-3.2-9.3-1.7-5-3.5-9.7-3.9-10.4-.5-.8-14.6 3.7-49.7 16.1-27 9.5-49.9 17.6-51 17.9-1.8.6-2.4-.3-5-7.8-1.6-4.6-2.7-8.6-2.4-8.8.2-.2 9.7-3.7 21.1-7.7l20.6-7.3-1.3-3.6c-.7-2-10.8-30.6-22.5-63.6s-22.3-62.1-23.7-64.8c-7-13.9-25-22.8-40-19.8-16 3.2-27.5 13.9-31.3 29.3-1.1 4.4-1.3 4.5-7.3 6.2-3.4 1-8 2.8-10.3 4.1-8.1 4.7-15.9 15.7-17.8 25l-.7 3 7.6 1.2c12.6 2.1 24 9.7 29.2 19.7 2.2 4.2 46.3 129.4 46.3 131.4 0 .5-6.2 3.1-13.7 5.7-7.6 2.6-23.7 8.3-35.8 12.7-12.1 4.3-22.1 7.4-22.3 7-.3-1.1-12.4 3.2-16.9 5.9-5.2 3.2-7.8 8.4-7.8 15.6 0 3.4.4 6.5.8 6.9.4.5 2.9.1 5.5-.8s86.6-30.6 186.7-65.9c119.7-42.3 183.7-64.4 187-64.6 6.1-.5 12.9 2.6 16.1 7.4 3.1 4.6 16.4 43.2 16.4 47.3-.1 4.7-3.1 11-6.7 14.1-1.7 1.4-7.8 4.2-13.6 6.3l-10.6 3.8 3.6 9.6c18.9 52.2 23 76.6 18.8 112.2-4.6 39.2-20.8 75.4-46.9 105.2-10.9 12.5-28.8 27.6-43 36.3-1.4.9.3 6.4 14.5 46.5 8.9 25 16.4 45.8 16.8 46.3.6.6 40.4-12.7 42.1-14 .3-.3-1-4.6-2.7-9.6-1.8-5-2.9-9.5-2.5-9.9.4-.3 9.6-3.8 20.5-7.7 10.9-3.8 20-7.1 20.3-7.3.2-.2-8.1-24.2-18.5-53.3l-18.8-53 2.8-3.5c4.8-6.1 14.2-15.4 22.2-22 17.2-14.2 36-39 46.8-61.5C592 385.4 598 358.8 598 329c-.1-25.7-3.6-43.3-15.6-77.1-4.1-11.6-7.4-21.3-7.4-21.7 0-.4 4.3-2.2 9.5-4.1 11.9-4.2 15.4-6.5 18.3-12.1 3.5-7.1 3-10.8-5.2-34.1-7.7-21.9-9.6-25.2-16.1-28.6-6.6-3.5-10.1-2.6-61.8 15.7-26.8 9.5-49 17.1-49.2 16.9-.2-.3-1.7-4.1-3.4-8.6l-3-8.1 11.7-4.2c6.4-2.3 15.9-5.6 20.9-7.3 5.1-1.8 9.3-3.6 9.3-4.1 0-1.5-44.1-125.7-46.3-130.4-3.2-6.9-10.1-13.8-17.4-17.4C436.6 1 434.5.5 426.6.3c-7-.2-10.3.2-14.4 1.7z"/><path d="M345.3 305.3c-12.8 4.5-23.7 8.7-24.1 9.2-.5.6-2 5.7-3.2 11.5-1.3 5.8-2.6 11.1-2.9 11.7-.4.8-3.3-1.1-8.2-5.5-4.1-3.7-8.3-7.3-9.2-8.1-1.5-1.2-4.9-.2-26.4 7.4-13.7 4.9-25 9-25.3 9.2-.3.3.3 1 1.2 1.7.9.7 23.1 19.4 49.3 41.7 26.2 22.2 48 40.5 48.3 40.6.4.2 5.6-25.7 11.6-57.5 6.1-31.7 11.5-60.5 12.2-64 .6-3.4.9-6.2.5-6.1-.3 0-11.1 3.7-23.8 8.2zM386 435.9c-11.8 4.2-35.9 12.8-53.5 19-17.6 6.3-33.2 12-34.7 12.7-3.6 1.9-5.8 5.2-5.8 8.9 0 1.6 5.2 18 11.7 36.3 11.9 34 13.5 37.3 18.8 38.6 1.7.4 19.4-5.4 58.8-19.3 31.1-11 57.4-20.4 58.6-21 2.7-1.5 4.3-4.6 4.3-8.5 0-1.7-5.3-18-11.7-36.1-12.9-36.6-14-38.6-21.3-38.4-2 0-13.4 3.5-25.2 7.8zm27.9 1.8c2.6 2.2 22.2 57 22.3 62.2 0 2-.8 4.1-1.9 5.3-2.4 2.4-102.6 38.1-107.1 38.2-2 0-4-.8-5.3-2.1-2.1-2.1-22.9-58.8-22.9-62.4 0-5.1 2.9-6.4 55-24.9 28.3-10 52.1-17.9 54.1-17.9 2.1-.1 4.6.7 5.8 1.6z"/><path d="M388.3 460.7c-2.4.8-4.3 1.8-4.3 2.3 0 .5 1.4 4.7 3 9.3 1.7 4.7 3 8.8 3 9 0 .3-2.2 1.3-5 2.2-2.7.9-5 2-5 2.3 0 .7 20.5 12.4 22.5 13 1 .2 10.8-23.9 10-24.7-.3-.2-2.5.4-5 1.3-2.4 1-4.9 1.5-5.4 1.1-.6-.3-2.2-4.4-3.8-9-3-9.3-3-9.3-10-6.8zM358.8 471.2l-5.7 1.9-2.6 7.7c-1.4 4.2-2.9 8.2-3.3 8.9-.5.8-3.1-.3-8.5-3.7l-7.8-4.8-5.1 1.6c-2.8.9-5.2 2.1-5.5 2.7-.4 1.2 11.4 35.4 12.7 36.9 1 1 11-2.1 11-3.4 0-.5-1.6-5.3-3.5-10.6-1.9-5.4-3.3-9.9-3.2-10 .1-.2 3.7 1.9 7.9 4.6l7.6 4.8 2.2-6.1c4.5-12.4 3.8-12.3 7.6-1.7 1.9 5.2 3.6 10 3.8 10.7.4.8 2 .6 5.8-.9 2.9-1.1 5.4-2.1 5.6-2.3.3-.2-12.6-37.7-13.1-38.1-.1-.1-2.8.7-5.9 1.8z"/></svg>