<svg version="1" xmlns="http://www.w3.org/2000/svg" width="1520" height="1520" viewBox="0 0 1140.000000 1140.000000"><path d="M685 1.5c-11.2 3.1-20 8.3-28.5 16.9-9.4 9.5-13.6 16.7-16.8 29.3-2 7.9-2.5 8.8-4.7 9.1-12.3 1.3-26 8.1-35.6 17.7-9.6 9.5-15.5 20.7-17.9 33.6l-.7 3.6 8.9.6c24 1.5 44.3 16.2 53.6 38.8 1.4 3.5 6.9 18.5 12.1 33.4 17.4 49.6 32.7 92.8 41.7 118.2 4.9 13.8 8.9 25.5 8.9 25.8 0 .6 8.6 25 10.5 29.7.5 1.1 0 1.8-1.7 2.3-2 .6-41.6 14.6-99.7 35.1-8.4 3-15.5 5.3-15.6 5.2-.1-.2-2.8-7.8-5.9-17.1-3.2-9.2-6.2-16.7-6.7-16.7s-2.6.6-4.6 1.4c-2.1.8-19.1 6.9-37.8 13.5-18.7 6.6-53.7 19-77.9 27.5-24.1 8.6-44.4 15.6-45 15.6-1 0-10.6-25.1-10.6-27.5 0-.6 15.3-6.4 34-12.9s34-12.2 34-12.5c0-1.2-7.4-22.6-27.5-79.1-10.8-30.5-22.5-63.6-26-73.5-14.5-41.3-20.6-58-23.1-62.5-6.2-11.4-16.4-20.8-28.9-26.5-9.5-4.4-16.3-5.8-27-5.7-28.6.2-54.2 21.3-60.1 49.4-.8 4-1.6 7.3-1.7 7.4-.1 0-3.3.6-7.2 1.3-20.7 3.6-39.4 20.4-45.9 41.1-4.1 12.7-4.1 12.6 5.4 12.9 20.3.5 41.5 14.3 51.1 33.2 1.6 3.3 5.4 13 8.5 21.7 8.8 24.9 23.6 66.9 33.8 95.9 5.2 14.8 12.4 35.2 16 45.4 3.6 10.3 6.6 19 6.6 19.4 0 .5 2.5 7.8 5.6 16.2 3 8.5 5.4 15.6 5.2 15.8-.3.2-34.1 12.3-92.7 33-16.2 5.7-24.6 8.2-25.1 7.5-1.1-1.8-23.4 6.6-28.8 11-8.5 6.6-12.9 19.2-10.8 30.2 1.2 6.3.9 6.4 19.7-.3 16.5-5.7 48.6-17.1 109.2-38.5 14.7-5.1 38.7-13.7 53.5-18.8 14.7-5.2 41.6-14.7 59.7-21.1 18.2-6.4 35.9-12.7 39.5-14 3.6-1.3 18.7-6.6 33.5-11.8 45.4-16 105.6-37.3 133.5-47.2 14.6-5.2 41.1-14.6 59-20.9 17.9-6.3 48.7-17.2 68.5-24.2 34.7-12.4 36.3-12.8 44-12.8 9.8 0 16 2.8 22.6 10.2 4.1 4.5 5.3 7.4 15.6 36.3 6.1 17.3 11.7 33.6 12.4 36.2 2.3 9.3-.6 19.9-7.7 27.7-4.7 5.1-9 7.3-26.9 13.5-7.7 2.6-14.2 4.9-14.4 5.1-.2.2 4.2 13 9.7 28.6 13.6 38.3 15.6 44.5 19.2 58.5 7.1 28.5 9.4 50.3 8.7 83.1-.8 38.6-5.9 66.1-18.9 101.2-22.7 61.2-64.9 114.7-118.8 150.6l-12.9 8.5 1.6 4.2c.8 2.3 4.3 12.3 7.8 22.2 3.5 9.9 10.1 28.8 14.8 42 4.7 13.2 12.9 36.4 18.2 51.5 5.4 15.1 10.1 28.2 10.6 29.1.7 1.4 4.3.4 28.1-8.1 15-5.3 30.3-10.7 34.1-11.9 3.7-1.3 6.7-2.7 6.7-3.1 0-.5-2.4-7.7-5.3-15.9-4.6-12.9-5.2-15.1-3.8-15.6 6-2.4 63.1-22.5 63.8-22.5.4 0 1.4-.4 2.1-.8 1.3-.9.2-4.3-33.8-100.2-9.4-26.7-19.2-54.2-21.7-61.3l-4.5-12.8 2.6-3.2c8.7-10.6 22.7-24.8 33.1-33.5 12.8-10.6 32.4-30.2 41.6-41.7 37.5-46.5 60.2-99.5 68.5-160 2.5-17.9 2.5-57.7 0-76-3.8-28.7-9.2-48.3-27-98.2-4.7-13.4-8.6-25-8.6-25.8 0-.8.5-1.5 1.1-1.5 3 0 30.9-10.8 34.8-13.5 5.2-3.5 10.6-10.9 12.2-16.8 2.4-8.9.9-15.3-10.5-47.7-6-16.8-11.7-32.2-12.7-34.2-3.1-6.1-7.6-10.5-14.1-13.8-5.1-2.5-7.3-3-13.4-3-6.8 0-10.1 1-62.5 19.6-85.1 30.1-103.2 36.4-104.4 36.4-1.6 0-11-26.9-9.9-27.9.5-.5 15.7-6 33.8-12.4 18.1-6.4 33.1-11.9 33.4-12.1.2-.3-6.9-21.1-15.8-46.3-8.9-25.2-19-53.9-22.5-63.8-15.7-44.5-34.5-97.3-36-100.9-4.3-10.1-15.1-22.3-24.9-28-10-5.9-17.2-7.8-30.1-8.2-8.6-.3-13.6 0-17.5 1.1z"/><path d="M578.5 494.7c-16.5 5.7-34 11.9-39 13.6l-9 3.2-2.2 9c-1.2 4.9-3.4 14.3-4.9 20.7l-2.7 11.7-14.9-13.6c-14.7-13.4-14.9-13.6-18.1-12.6-5.9 2-26.1 9.1-36.2 12.8-5.5 2.1-16.1 5.9-23.5 8.5-21.3 7.6-19.7 6.8-17.4 8.9 1 1.1 15.6 13.5 32.4 27.8 16.8 14.2 52.1 44 78.3 66.3 26.3 22.3 48.1 40.4 48.5 40.3.3-.1 1.6-5.5 2.8-12 1.3-6.5 7.5-39.3 13.9-72.8 6.4-33.6 12.5-65.5 13.5-71s3.5-18.5 5.5-28.9c2-10.5 3.5-19.7 3.3-20.7-.3-1.4-4.7-.1-30.3 8.8zM667.5 700c-4.4 1.5-14.5 5.1-22.5 8-8 2.8-15.6 5.5-17 6-1.4.4-7.7 2.7-14 5s-12.6 4.6-14 5c-1.4.4-7 2.5-12.5 4.5s-13.2 4.8-17.1 6.1c-6.5 2.3-7.2 2.8-9.2 7-1.2 2.4-2.2 4.7-2.2 5 0 .7 2.3 0 17-5.1 6.9-2.4 22.4-7.9 34.5-12.1 12.1-4.2 30.3-10.5 40.4-14 11.1-3.9 20-6.4 22.5-6.4 4.6 0 9.7 2.7 12 6.2.8 1.3 6.6 17.1 12.9 35.3 6.4 18.1 13.6 38.8 16.2 46 2.7 7.6 4.6 14.8 4.6 17.2.1 5.4-3 10.6-7.4 12.6-1.8.9-27.3 10.1-56.7 20.6-29.4 10.4-66.2 23.5-81.8 29-15.6 5.6-29.9 10.1-31.8 10.1-4.6 0-10.1-2.6-12.2-5.8-.8-1.3-4.6-10.7-8.2-20.9-7-19.4-6.9-19.4-10.4-12.6-1.6 3.3-1.6 3.5 5 22.5 3.7 10.6 7.4 20.3 8.2 21.5 3.7 5.8 12.9 7.9 20.9 4.9 2.1-.8 12.1-4.4 22.3-7.9 10.2-3.6 30.7-10.8 45.5-16 14.9-5.3 39.4-13.9 54.5-19.2 63-22.1 59.1-20.4 62.3-26.6 3.3-6.2 2-10.9-18.1-67-10.3-29-19.6-53.9-20.6-55.4-2-3-8.8-6.5-12.6-6.4-1.4 0-6.1 1.3-10.5 2.9z"/><path d="M642.3 750.3c-4.6 1.6-8.3 3.5-8.3 4.1 0 .6 2.3 7.4 5 15 2.8 7.7 5 14.3 5 14.7 0 .4-3.6 2-8 3.5-4.4 1.6-8 3.2-8 3.5 0 .4 5.3 3.7 11.8 7.5 6.4 3.7 14.2 8.2 17.2 10.1 3.1 1.8 6 3.3 6.5 3.3.6 0 3.6-6.9 6.9-15.3 3.2-8.3 6.7-17.3 7.7-19.9l1.8-4.7-8.6 3c-4.7 1.7-8.9 2.7-9.3 2.2-.5-.4-2.9-6.9-5.5-14.3s-5-14-5.4-14.6c-.4-.7-3.3-.1-8.8 1.9zM592.1 768.3l-8.4 3.2-5 14.2c-2.7 7.9-5.4 14.3-5.9 14.3-.6 0-6.6-3.4-13.4-7.5-12-7.3-12.6-7.5-16.2-6.5-3.3.9-4.1 1.8-6.9 7.8l-3.2 6.9 7 20.4c3.9 11.2 7.9 22.6 8.8 25.4 1 2.7 2.1 4.9 2.5 4.8.3-.1 4.3-1.4 8.7-2.8 6.5-2.2 7.9-3 7.4-4.4-4.4-11.3-11.7-33.3-11.2-33.7.3-.3 5.9 2.9 12.5 7 6.5 4.2 12.3 7.6 12.9 7.6.5 0 3.1-6.3 5.7-14.1 2.7-7.7 5.2-13.7 5.7-13.2.4.4 3.3 8.2 6.5 17.3 3.1 9.1 5.8 16.7 6 16.9.3.4 16.2-4.7 17.2-5.4.1-.1-4.5-13.5-10.3-29.8-5.8-16.2-10.5-30-10.5-30.6 0-1.5-.4-1.4-9.9 2.2z"/></svg>